<mxfile host="65bd71144e" modified="2020-11-05T03:30:08.631Z" agent="5.0 (Macintosh; Intel Mac OS X 10_15_7) AppleWebKit/537.36 (KHTML, like Gecko) Code/1.50.1 Chrome/83.0.4103.122 Electron/9.2.1 Safari/537.36" version="13.6.5" etag="x0EBH0z6BO5ZnBS7c5Ve">
    <diagram id="zcH8dzqv_2LagWLAObTW" name="Page-1">
        <mxGraphModel dx="646" dy="405" grid="1" gridSize="10" guides="1" tooltips="1" connect="1" arrows="1" fold="1" page="1" pageScale="1" pageWidth="827" pageHeight="1169" math="0" shadow="0">
            <root>
                <mxCell id="0"/>
                <mxCell id="1" parent="0"/>
                <mxCell id="7" style="edgeStyle=orthogonalEdgeStyle;rounded=0;orthogonalLoop=1;jettySize=auto;html=1;" edge="1" parent="1" source="2" target="3">
                    <mxGeometry relative="1" as="geometry"/>
                </mxCell>
                <mxCell id="10" style="edgeStyle=orthogonalEdgeStyle;rounded=0;orthogonalLoop=1;jettySize=auto;html=1;exitX=0.75;exitY=1;exitDx=0;exitDy=0;entryX=0.75;entryY=0;entryDx=0;entryDy=0;" edge="1" parent="1" source="2" target="9">
                    <mxGeometry relative="1" as="geometry"/>
                </mxCell>
                <mxCell id="13" style="edgeStyle=orthogonalEdgeStyle;rounded=0;orthogonalLoop=1;jettySize=auto;html=1;exitX=0;exitY=0.75;exitDx=0;exitDy=0;" edge="1" parent="1" source="2">
                    <mxGeometry relative="1" as="geometry">
                        <mxPoint x="160" y="365" as="targetPoint"/>
                    </mxGeometry>
                </mxCell>
                <mxCell id="2" value="resource server&lt;br&gt;(k8s)" style="rounded=0;whiteSpace=wrap;html=1;" vertex="1" parent="1">
                    <mxGeometry x="270" y="320" width="120" height="60" as="geometry"/>
                </mxCell>
                <mxCell id="8" style="edgeStyle=orthogonalEdgeStyle;rounded=0;orthogonalLoop=1;jettySize=auto;html=1;exitX=0;exitY=0.75;exitDx=0;exitDy=0;entryX=1;entryY=0.75;entryDx=0;entryDy=0;" edge="1" parent="1" source="3" target="2">
                    <mxGeometry relative="1" as="geometry"/>
                </mxCell>
                <mxCell id="3" value="authentication server&lt;br&gt;(IAM)" style="rounded=0;whiteSpace=wrap;html=1;" vertex="1" parent="1">
                    <mxGeometry x="480" y="320" width="120" height="60" as="geometry"/>
                </mxCell>
                <mxCell id="6" style="edgeStyle=orthogonalEdgeStyle;rounded=0;orthogonalLoop=1;jettySize=auto;html=1;entryX=0;entryY=0.5;entryDx=0;entryDy=0;" edge="1" parent="1" source="4" target="2">
                    <mxGeometry relative="1" as="geometry"/>
                </mxCell>
                <mxCell id="4" value="User, Group, Service Account" style="shape=umlActor;verticalLabelPosition=bottom;verticalAlign=top;html=1;outlineConnect=0;" vertex="1" parent="1">
                    <mxGeometry x="110" y="320" width="30" height="60" as="geometry"/>
                </mxCell>
                <mxCell id="11" style="edgeStyle=orthogonalEdgeStyle;rounded=0;orthogonalLoop=1;jettySize=auto;html=1;exitX=0.25;exitY=0;exitDx=0;exitDy=0;entryX=0.25;entryY=1;entryDx=0;entryDy=0;" edge="1" parent="1" source="9" target="2">
                    <mxGeometry relative="1" as="geometry"/>
                </mxCell>
                <mxCell id="9" value="authorisation server&lt;br&gt;(rbac)" style="rounded=0;whiteSpace=wrap;html=1;" vertex="1" parent="1">
                    <mxGeometry x="270" y="450" width="120" height="60" as="geometry"/>
                </mxCell>
                <mxCell id="12" value="borrowing terms from oauth world: resource server, authentication server, authorisation server" style="text;html=1;align=center;verticalAlign=middle;resizable=0;points=[];autosize=1;" vertex="1" parent="1">
                    <mxGeometry x="80" y="540" width="510" height="20" as="geometry"/>
                </mxCell>
            </root>
        </mxGraphModel>
    </diagram>
</mxfile>